# xmcd
#
# Track frame offsets: 
#        150
#        10547
#        27502
#        46287
#        57617
#        76282
#        95730
#        112122
#        126060
#        148067
#        158142
#        172512
#
# Disc length: 2438 seconds
#
# Revision: 0
# Processed by: cddbd v1.5.2PL0 Copyright (c) Steve Scherf et al.
# Submitted via: ExactAudioCopy v0.99pb4
#
DISCID=9809840c
DTITLE=Evans, Dave - Goin' Round This World
DYEAR=1996
DGENRE=Bluegrass
TTITLE0=You Won't Be Satisfied That Way
TTITLE1=She Thinks I Still Care
TTITLE2=Pastures Of Plenty
TTITLE3=You'll Never Walk The Streets Of Gold
TTITLE4=Somebody Loves You Darling
TTITLE5=Only One Was True
TTITLE6=Be Proud Of The Gray In Your Hair
TTITLE7=Shenandoah Waltz
TTITLE8=One Loaf Of Bread
TTITLE9=Road To Columbus
TTITLE10=Drunkard's Dream
TTITLE11=Goin' Round This World
EXTD=
EXTT0=
EXTT1=
EXTT2=
EXTT3=
EXTT4=
EXTT5=
EXTT6=
EXTT7=
EXTT8=
EXTT9=
EXTT10=
EXTT11=
PLAYORDER=
